<svg width="99" height="83" fill="none" xmlns="http://www.w3.org/2000/svg"><g filter="url(#filter0_d_1_822)"><path d="M10.688 16.288c-29.665-34.398 66.36 0 66.36 0s38.142 76.396 0 53.394c-38.141-23.002-66.36 0-66.36 0s29.666-18.995 0-53.394z" fill="#B40000"/><path d="M10.688 16.288c-29.665-34.398 66.36 0 66.36 0s38.142 76.396 0 53.394c-38.141-23.002-66.36 0-66.36 0s29.666-18.995 0-53.394z" fill="url(#paint0_linear_1_822)"/></g><path d="M35 31.966l4.106-3.794c4.802 2.324 7.848 4.09 13.244 7.938C62.496 24.596 69.202 18.754 81.664 11L83 14.072C72.722 23.04 65.196 33.03 54.358 52.468 47.672 44.596 43.21 39.576 35 31.966z" fill="#fff"/><defs><linearGradient id="paint0_linear_1_822" x1="49.5" y1="1" x2="49.5" y2="74" gradientUnits="userSpaceOnUse"><stop stop-color="#FFC920"/><stop offset="1" stop-color="#fff" stop-opacity="0"/></linearGradient><filter id="filter0_d_1_822" x="0" y="0" width="99" height="83" filterUnits="userSpaceOnUse" color-interpolation-filters="sRGB"><feFlood flood-opacity="0" result="BackgroundImageFix"/><feColorMatrix in="SourceAlpha" values="0 0 0 0 0 0 0 0 0 0 0 0 0 0 0 0 0 0 127 0" result="hardAlpha"/><feOffset dy="4"/><feGaussianBlur stdDeviation="2.5"/><feColorMatrix values="0 0 0 0 0.5125 0 0 0 0 0.5125 0 0 0 0 0.5125 0 0 0 0.25 0"/><feBlend in2="BackgroundImageFix" result="effect1_dropShadow_1_822"/><feBlend in="SourceGraphic" in2="effect1_dropShadow_1_822" result="shape"/></filter></defs></svg>